<svg width="58" height="54" viewBox="0 0 58 54" fill="none" xmlns="http://www.w3.org/2000/svg">
<path d="M56.1562 26.5625L30.4124 0.837473C30.2271 0.651749 30.0069 0.504403 29.7645 0.403869C29.5222 0.303335 29.2623 0.251587 29 0.251587C28.7376 0.251587 28.4777 0.303335 28.2354 0.403869C27.993 0.504403 27.7728 0.651749 27.5875 0.837473L1.8437 26.5625C1.0937 27.3125 0.668701 28.3312 0.668701 29.3937C0.668701 31.6 2.46245 33.3937 4.6687 33.3937H7.3812V51.75C7.3812 52.8562 8.27495 53.75 9.3812 53.75H25V39.75H32V53.75H48.6187C49.725 53.75 50.6187 52.8562 50.6187 51.75V33.3937H53.3312C54.3937 33.3937 55.4124 32.975 56.1624 32.2187C57.7187 30.6562 57.7187 28.125 56.1562 26.5625Z" fill="#FF842B"/>
</svg>
